<svg xmlns="http://www.w3.org/2000/svg" width="512" height="512" viewBox="0 0 512 512">
  <defs>
    <linearGradient id="g" x1="0" y1="0" x2="1" y2="1">
      <stop offset="0" stop-color="#00A884"/>
      <stop offset="1" stop-color="#075E54"/>
    </linearGradient>
  </defs>
  <rect width="512" height="512" rx="112" fill="url(#g)"/>
  <g transform="translate(144,150) scale(3.4)">
    <circle cx="34" cy="13" r="4.5" fill="#FFD34E"/>
    <circle cx="41" cy="11" r="4" fill="#FFD34E"/>
    <circle cx="47" cy="14" r="3.5" fill="#FFD34E"/>
    <path d="M44 20a10 10 0 0 1 3 7c6 1 11 6 11 14 0 9-8 15-18 15-11 0-19-6-19-16 0-6 3-11 8-13-1-4 0-9 4-12 3-2 8-2 11 5z" fill="#FFFFFF"/>
    <path d="M51 22l9 1-8 5z" fill="#FF8C42"/>
    <path d="M50 28c0 4-2 6-4 6s-2-4 0-6 4-2 4 0z" fill="#FF6B6B"/>
    <circle cx="45" cy="22" r="2.4" fill="#075E54"/>
    <path d="M18 30c-6-3-11-2-14 3 4 0 5 3 4 7 4-3 8-3 12-1z" fill="#FFD34E"/>
    <path d="M16 36c-6-1-10 1-12 6 4-1 6 2 6 6 3-4 7-5 11-4z" fill="#12B886"/>
    <path d="M34 55l-2 6M42 55l2 6" stroke="#FF8C42" stroke-width="3" stroke-linecap="round"/>
  </g>
</svg>
